<mxfile host="app.diagrams.net" agent="Mozilla/5.0 (Windows NT 10.0; Win64; x64) AppleWebKit/537.36 (KHTML, like Gecko) Chrome/136.0.0.0 Safari/537.36" version="26.2.13">
  <diagram name="Página-1" id="JvbPW41r8Lv7bT1MMDEu">
    <mxGraphModel dx="1428" dy="785" grid="1" gridSize="10" guides="1" tooltips="1" connect="1" arrows="1" fold="1" page="1" pageScale="1" pageWidth="827" pageHeight="1169" math="0" shadow="0">
      <root>
        <mxCell id="0" />
        <mxCell id="1" parent="0" />
        <mxCell id="KcOI9F813_DZbnAcJzki-1" value="" style="ellipse;html=1;shape=endState;fillColor=#000000;strokeColor=#ff0000;" vertex="1" parent="1">
          <mxGeometry x="520" y="525" width="30" height="30" as="geometry" />
        </mxCell>
        <mxCell id="KcOI9F813_DZbnAcJzki-7" style="edgeStyle=orthogonalEdgeStyle;rounded=0;orthogonalLoop=1;jettySize=auto;html=1;exitX=0;exitY=0.5;exitDx=0;exitDy=0;exitPerimeter=0;entryX=0;entryY=0.5;entryDx=0;entryDy=0;" edge="1" parent="1" source="KcOI9F813_DZbnAcJzki-2" target="KcOI9F813_DZbnAcJzki-5">
          <mxGeometry relative="1" as="geometry">
            <Array as="points">
              <mxPoint x="70" y="390" />
              <mxPoint x="70" y="195" />
            </Array>
          </mxGeometry>
        </mxCell>
        <mxCell id="KcOI9F813_DZbnAcJzki-14" style="edgeStyle=orthogonalEdgeStyle;rounded=0;orthogonalLoop=1;jettySize=auto;html=1;exitX=1;exitY=0.5;exitDx=0;exitDy=0;exitPerimeter=0;entryX=0;entryY=0.5;entryDx=0;entryDy=0;" edge="1" parent="1" source="KcOI9F813_DZbnAcJzki-2" target="KcOI9F813_DZbnAcJzki-13">
          <mxGeometry relative="1" as="geometry">
            <Array as="points">
              <mxPoint x="270" y="390" />
              <mxPoint x="270" y="65" />
            </Array>
          </mxGeometry>
        </mxCell>
        <mxCell id="KcOI9F813_DZbnAcJzki-15" value="Si" style="edgeLabel;html=1;align=center;verticalAlign=middle;resizable=0;points=[];" vertex="1" connectable="0" parent="KcOI9F813_DZbnAcJzki-14">
          <mxGeometry x="-0.2171" y="-1" relative="1" as="geometry">
            <mxPoint x="-11" y="-55" as="offset" />
          </mxGeometry>
        </mxCell>
        <mxCell id="KcOI9F813_DZbnAcJzki-2" value="Envió los&amp;nbsp;&lt;div&gt;datos&lt;/div&gt;" style="strokeWidth=2;html=1;shape=mxgraph.flowchart.decision;whiteSpace=wrap;" vertex="1" parent="1">
          <mxGeometry x="115" y="340" width="100" height="100" as="geometry" />
        </mxCell>
        <mxCell id="KcOI9F813_DZbnAcJzki-9" style="edgeStyle=orthogonalEdgeStyle;rounded=0;orthogonalLoop=1;jettySize=auto;html=1;exitX=0.5;exitY=1;exitDx=0;exitDy=0;entryX=0.5;entryY=0;entryDx=0;entryDy=0;" edge="1" parent="1" source="KcOI9F813_DZbnAcJzki-3" target="KcOI9F813_DZbnAcJzki-4">
          <mxGeometry relative="1" as="geometry" />
        </mxCell>
        <mxCell id="KcOI9F813_DZbnAcJzki-3" value="Inicia&amp;nbsp;&lt;div&gt;en el PC&lt;/div&gt;" style="html=1;whiteSpace=wrap;" vertex="1" parent="1">
          <mxGeometry x="105" y="30" width="110" height="50" as="geometry" />
        </mxCell>
        <mxCell id="KcOI9F813_DZbnAcJzki-10" style="edgeStyle=orthogonalEdgeStyle;rounded=0;orthogonalLoop=1;jettySize=auto;html=1;exitX=0.5;exitY=1;exitDx=0;exitDy=0;entryX=0.5;entryY=0;entryDx=0;entryDy=0;" edge="1" parent="1" source="KcOI9F813_DZbnAcJzki-4" target="KcOI9F813_DZbnAcJzki-5">
          <mxGeometry relative="1" as="geometry" />
        </mxCell>
        <mxCell id="KcOI9F813_DZbnAcJzki-4" value="Crear GUI&lt;span style=&quot;color: rgba(0, 0, 0, 0); font-family: monospace; font-size: 0px; text-align: start; text-wrap-mode: nowrap;&quot;&gt;%3CmxGraphModel%3E%3Croot%3E%3CmxCell%20id%3D%220%22%2F%3E%3CmxCell%20id%3D%221%22%20parent%3D%220%22%2F%3E%3CmxCell%20id%3D%222%22%20value%3D%22Inicia%22%20style%3D%22html%3D1%3BwhiteSpace%3Dwrap%3B%22%20vertex%3D%221%22%20parent%3D%221%22%3E%3CmxGeometry%20x%3D%22110%22%20y%3D%2230%22%20width%3D%22110%22%20height%3D%2250%22%20as%3D%22geometry%22%2F%3E%3C%2FmxCell%3E%3C%2Froot%3E%3C%2FmxGraphModel%3E&lt;/span&gt;" style="html=1;whiteSpace=wrap;" vertex="1" parent="1">
          <mxGeometry x="110" y="100" width="110" height="50" as="geometry" />
        </mxCell>
        <mxCell id="KcOI9F813_DZbnAcJzki-11" style="edgeStyle=orthogonalEdgeStyle;rounded=0;orthogonalLoop=1;jettySize=auto;html=1;exitX=0.5;exitY=1;exitDx=0;exitDy=0;entryX=0.5;entryY=0;entryDx=0;entryDy=0;" edge="1" parent="1" source="KcOI9F813_DZbnAcJzki-5" target="KcOI9F813_DZbnAcJzki-6">
          <mxGeometry relative="1" as="geometry" />
        </mxCell>
        <mxCell id="KcOI9F813_DZbnAcJzki-5" value="Input Text" style="html=1;whiteSpace=wrap;" vertex="1" parent="1">
          <mxGeometry x="110" y="170" width="110" height="50" as="geometry" />
        </mxCell>
        <mxCell id="KcOI9F813_DZbnAcJzki-6" value="Boton Enviar" style="html=1;whiteSpace=wrap;" vertex="1" parent="1">
          <mxGeometry x="110" y="250" width="110" height="50" as="geometry" />
        </mxCell>
        <mxCell id="KcOI9F813_DZbnAcJzki-8" value="No" style="text;html=1;align=center;verticalAlign=middle;resizable=0;points=[];autosize=1;strokeColor=none;fillColor=none;" vertex="1" parent="1">
          <mxGeometry x="25" y="280" width="40" height="30" as="geometry" />
        </mxCell>
        <mxCell id="KcOI9F813_DZbnAcJzki-12" style="edgeStyle=orthogonalEdgeStyle;rounded=0;orthogonalLoop=1;jettySize=auto;html=1;exitX=0.5;exitY=1;exitDx=0;exitDy=0;entryX=0.5;entryY=0;entryDx=0;entryDy=0;entryPerimeter=0;" edge="1" parent="1" source="KcOI9F813_DZbnAcJzki-6" target="KcOI9F813_DZbnAcJzki-2">
          <mxGeometry relative="1" as="geometry" />
        </mxCell>
        <mxCell id="KcOI9F813_DZbnAcJzki-17" style="edgeStyle=orthogonalEdgeStyle;rounded=0;orthogonalLoop=1;jettySize=auto;html=1;exitX=0.5;exitY=1;exitDx=0;exitDy=0;entryX=0.5;entryY=0;entryDx=0;entryDy=0;" edge="1" parent="1" source="KcOI9F813_DZbnAcJzki-13" target="KcOI9F813_DZbnAcJzki-16">
          <mxGeometry relative="1" as="geometry" />
        </mxCell>
        <mxCell id="KcOI9F813_DZbnAcJzki-13" value="Raspbarry pi pico" style="html=1;whiteSpace=wrap;" vertex="1" parent="1">
          <mxGeometry x="319" y="40" width="110" height="50" as="geometry" />
        </mxCell>
        <mxCell id="KcOI9F813_DZbnAcJzki-28" style="edgeStyle=orthogonalEdgeStyle;rounded=0;orthogonalLoop=1;jettySize=auto;html=1;exitX=0.5;exitY=1;exitDx=0;exitDy=0;entryX=0.5;entryY=0;entryDx=0;entryDy=0;" edge="1" parent="1" source="KcOI9F813_DZbnAcJzki-16" target="KcOI9F813_DZbnAcJzki-27">
          <mxGeometry relative="1" as="geometry" />
        </mxCell>
        <mxCell id="KcOI9F813_DZbnAcJzki-16" value="Recibir Texto" style="html=1;whiteSpace=wrap;" vertex="1" parent="1">
          <mxGeometry x="319" y="110" width="110" height="50" as="geometry" />
        </mxCell>
        <mxCell id="KcOI9F813_DZbnAcJzki-18" value="Traduce a Braille" style="html=1;whiteSpace=wrap;" vertex="1" parent="1">
          <mxGeometry x="319" y="260" width="110" height="50" as="geometry" />
        </mxCell>
        <mxCell id="KcOI9F813_DZbnAcJzki-23" style="edgeStyle=orthogonalEdgeStyle;rounded=0;orthogonalLoop=1;jettySize=auto;html=1;exitX=1;exitY=0.5;exitDx=0;exitDy=0;exitPerimeter=0;entryX=1;entryY=0.5;entryDx=0;entryDy=0;" edge="1" parent="1" source="KcOI9F813_DZbnAcJzki-21" target="KcOI9F813_DZbnAcJzki-18">
          <mxGeometry relative="1" as="geometry" />
        </mxCell>
        <mxCell id="KcOI9F813_DZbnAcJzki-24" value="No" style="edgeLabel;html=1;align=center;verticalAlign=middle;resizable=0;points=[];" vertex="1" connectable="0" parent="KcOI9F813_DZbnAcJzki-23">
          <mxGeometry x="0.0065" y="3" relative="1" as="geometry">
            <mxPoint x="-12" y="-2" as="offset" />
          </mxGeometry>
        </mxCell>
        <mxCell id="KcOI9F813_DZbnAcJzki-25" style="edgeStyle=orthogonalEdgeStyle;rounded=0;orthogonalLoop=1;jettySize=auto;html=1;exitX=0.5;exitY=1;exitDx=0;exitDy=0;exitPerimeter=0;entryX=0;entryY=0.5;entryDx=0;entryDy=0;" edge="1" parent="1" source="KcOI9F813_DZbnAcJzki-21" target="KcOI9F813_DZbnAcJzki-36">
          <mxGeometry relative="1" as="geometry">
            <mxPoint x="379" y="450" as="targetPoint" />
            <Array as="points">
              <mxPoint x="379" y="450" />
              <mxPoint x="480" y="450" />
              <mxPoint x="480" y="55" />
            </Array>
          </mxGeometry>
        </mxCell>
        <mxCell id="KcOI9F813_DZbnAcJzki-26" value="Si" style="edgeLabel;html=1;align=center;verticalAlign=middle;resizable=0;points=[];" vertex="1" connectable="0" parent="KcOI9F813_DZbnAcJzki-25">
          <mxGeometry x="-0.3333" relative="1" as="geometry">
            <mxPoint x="11" y="-129" as="offset" />
          </mxGeometry>
        </mxCell>
        <mxCell id="KcOI9F813_DZbnAcJzki-21" value="Traducción&amp;nbsp;&lt;div&gt;Exitosa&lt;/div&gt;" style="strokeWidth=2;html=1;shape=mxgraph.flowchart.decision;whiteSpace=wrap;" vertex="1" parent="1">
          <mxGeometry x="329" y="330" width="100" height="100" as="geometry" />
        </mxCell>
        <mxCell id="KcOI9F813_DZbnAcJzki-22" style="edgeStyle=orthogonalEdgeStyle;rounded=0;orthogonalLoop=1;jettySize=auto;html=1;exitX=0.5;exitY=1;exitDx=0;exitDy=0;entryX=0.5;entryY=0;entryDx=0;entryDy=0;entryPerimeter=0;" edge="1" parent="1" source="KcOI9F813_DZbnAcJzki-18" target="KcOI9F813_DZbnAcJzki-21">
          <mxGeometry relative="1" as="geometry" />
        </mxCell>
        <mxCell id="KcOI9F813_DZbnAcJzki-32" style="edgeStyle=orthogonalEdgeStyle;rounded=0;orthogonalLoop=1;jettySize=auto;html=1;exitX=0.5;exitY=1;exitDx=0;exitDy=0;entryX=0.5;entryY=0;entryDx=0;entryDy=0;" edge="1" parent="1" source="KcOI9F813_DZbnAcJzki-27" target="KcOI9F813_DZbnAcJzki-18">
          <mxGeometry relative="1" as="geometry" />
        </mxCell>
        <mxCell id="KcOI9F813_DZbnAcJzki-27" value="Texto a Array&lt;div&gt;(segmenta las palabras)&lt;/div&gt;" style="html=1;whiteSpace=wrap;" vertex="1" parent="1">
          <mxGeometry x="319" y="190" width="110" height="50" as="geometry" />
        </mxCell>
        <mxCell id="KcOI9F813_DZbnAcJzki-40" style="edgeStyle=orthogonalEdgeStyle;rounded=0;orthogonalLoop=1;jettySize=auto;html=1;exitX=0.5;exitY=1;exitDx=0;exitDy=0;entryX=0.5;entryY=0;entryDx=0;entryDy=0;" edge="1" parent="1" source="KcOI9F813_DZbnAcJzki-36" target="KcOI9F813_DZbnAcJzki-37">
          <mxGeometry relative="1" as="geometry" />
        </mxCell>
        <mxCell id="KcOI9F813_DZbnAcJzki-36" value="Mandar&amp;nbsp;&lt;div&gt;la Traducción al mini teclado&lt;/div&gt;" style="html=1;whiteSpace=wrap;" vertex="1" parent="1">
          <mxGeometry x="630" y="30" width="110" height="50" as="geometry" />
        </mxCell>
        <mxCell id="KcOI9F813_DZbnAcJzki-44" style="edgeStyle=orthogonalEdgeStyle;rounded=0;orthogonalLoop=1;jettySize=auto;html=1;exitX=0.5;exitY=1;exitDx=0;exitDy=0;entryX=0.5;entryY=0;entryDx=0;entryDy=0;" edge="1" parent="1" source="KcOI9F813_DZbnAcJzki-37" target="KcOI9F813_DZbnAcJzki-38">
          <mxGeometry relative="1" as="geometry" />
        </mxCell>
        <mxCell id="KcOI9F813_DZbnAcJzki-37" value="Botón A o B&lt;div&gt;(Siguiente y anterior&lt;/div&gt;&lt;div&gt;letra)&lt;/div&gt;" style="html=1;whiteSpace=wrap;" vertex="1" parent="1">
          <mxGeometry x="630" y="110" width="110" height="50" as="geometry" />
        </mxCell>
        <mxCell id="KcOI9F813_DZbnAcJzki-38" value="Botón 1,2,4,5,7 y 8&lt;div&gt;(Teclado braille)&lt;/div&gt;" style="html=1;whiteSpace=wrap;" vertex="1" parent="1">
          <mxGeometry x="630" y="190" width="110" height="50" as="geometry" />
        </mxCell>
        <mxCell id="KcOI9F813_DZbnAcJzki-39" value="Prende el LED / Buzzer" style="html=1;whiteSpace=wrap;" vertex="1" parent="1">
          <mxGeometry x="630" y="410" width="110" height="50" as="geometry" />
        </mxCell>
        <mxCell id="KcOI9F813_DZbnAcJzki-48" style="edgeStyle=orthogonalEdgeStyle;rounded=0;orthogonalLoop=1;jettySize=auto;html=1;exitX=1;exitY=0.5;exitDx=0;exitDy=0;exitPerimeter=0;entryX=1;entryY=0.5;entryDx=0;entryDy=0;" edge="1" parent="1" source="KcOI9F813_DZbnAcJzki-46" target="KcOI9F813_DZbnAcJzki-37">
          <mxGeometry relative="1" as="geometry">
            <Array as="points">
              <mxPoint x="770" y="540" />
              <mxPoint x="770" y="135" />
            </Array>
          </mxGeometry>
        </mxCell>
        <mxCell id="KcOI9F813_DZbnAcJzki-49" value="No" style="edgeLabel;html=1;align=center;verticalAlign=middle;resizable=0;points=[];" vertex="1" connectable="0" parent="KcOI9F813_DZbnAcJzki-48">
          <mxGeometry x="0.1267" y="3" relative="1" as="geometry">
            <mxPoint x="23" y="20" as="offset" />
          </mxGeometry>
        </mxCell>
        <mxCell id="KcOI9F813_DZbnAcJzki-52" style="edgeStyle=orthogonalEdgeStyle;rounded=0;orthogonalLoop=1;jettySize=auto;html=1;" edge="1" parent="1" source="KcOI9F813_DZbnAcJzki-46" target="KcOI9F813_DZbnAcJzki-1">
          <mxGeometry relative="1" as="geometry" />
        </mxCell>
        <mxCell id="KcOI9F813_DZbnAcJzki-58" value="SI" style="edgeLabel;html=1;align=center;verticalAlign=middle;resizable=0;points=[];" vertex="1" connectable="0" parent="KcOI9F813_DZbnAcJzki-52">
          <mxGeometry x="-0.037" y="5" relative="1" as="geometry">
            <mxPoint x="9" y="-20" as="offset" />
          </mxGeometry>
        </mxCell>
        <mxCell id="KcOI9F813_DZbnAcJzki-46" value="Termino la palabra" style="strokeWidth=2;html=1;shape=mxgraph.flowchart.decision;whiteSpace=wrap;" vertex="1" parent="1">
          <mxGeometry x="635" y="490" width="100" height="100" as="geometry" />
        </mxCell>
        <mxCell id="KcOI9F813_DZbnAcJzki-47" style="edgeStyle=orthogonalEdgeStyle;rounded=0;orthogonalLoop=1;jettySize=auto;html=1;exitX=0.5;exitY=1;exitDx=0;exitDy=0;entryX=0.5;entryY=0;entryDx=0;entryDy=0;entryPerimeter=0;" edge="1" parent="1" source="KcOI9F813_DZbnAcJzki-39" target="KcOI9F813_DZbnAcJzki-46">
          <mxGeometry relative="1" as="geometry" />
        </mxCell>
        <mxCell id="KcOI9F813_DZbnAcJzki-54" style="edgeStyle=orthogonalEdgeStyle;rounded=0;orthogonalLoop=1;jettySize=auto;html=1;exitX=0.5;exitY=1;exitDx=0;exitDy=0;exitPerimeter=0;entryX=0.5;entryY=0;entryDx=0;entryDy=0;" edge="1" parent="1" source="KcOI9F813_DZbnAcJzki-51" target="KcOI9F813_DZbnAcJzki-39">
          <mxGeometry relative="1" as="geometry" />
        </mxCell>
        <mxCell id="KcOI9F813_DZbnAcJzki-59" value="Si" style="edgeLabel;html=1;align=center;verticalAlign=middle;resizable=0;points=[];" vertex="1" connectable="0" parent="KcOI9F813_DZbnAcJzki-54">
          <mxGeometry x="-0.4" y="-3" relative="1" as="geometry">
            <mxPoint x="11" as="offset" />
          </mxGeometry>
        </mxCell>
        <mxCell id="KcOI9F813_DZbnAcJzki-56" style="edgeStyle=orthogonalEdgeStyle;rounded=0;orthogonalLoop=1;jettySize=auto;html=1;exitX=0;exitY=0.5;exitDx=0;exitDy=0;exitPerimeter=0;entryX=0.5;entryY=1;entryDx=0;entryDy=0;" edge="1" parent="1" source="KcOI9F813_DZbnAcJzki-51" target="KcOI9F813_DZbnAcJzki-55">
          <mxGeometry relative="1" as="geometry" />
        </mxCell>
        <mxCell id="KcOI9F813_DZbnAcJzki-51" value="La&amp;nbsp;&lt;span style=&quot;background-color: transparent; color: light-dark(rgb(0, 0, 0), rgb(255, 255, 255));&quot;&gt;teclas es&amp;nbsp;&lt;/span&gt;&lt;div&gt;&lt;span style=&quot;background-color: transparent; color: light-dark(rgb(0, 0, 0), rgb(255, 255, 255));&quot;&gt;correcta&lt;/span&gt;&lt;/div&gt;" style="strokeWidth=2;html=1;shape=mxgraph.flowchart.decision;whiteSpace=wrap;" vertex="1" parent="1">
          <mxGeometry x="630" y="270" width="112.5" height="110" as="geometry" />
        </mxCell>
        <mxCell id="KcOI9F813_DZbnAcJzki-53" style="edgeStyle=orthogonalEdgeStyle;rounded=0;orthogonalLoop=1;jettySize=auto;html=1;exitX=0.5;exitY=1;exitDx=0;exitDy=0;entryX=0.5;entryY=0;entryDx=0;entryDy=0;entryPerimeter=0;" edge="1" parent="1" source="KcOI9F813_DZbnAcJzki-38" target="KcOI9F813_DZbnAcJzki-51">
          <mxGeometry relative="1" as="geometry" />
        </mxCell>
        <mxCell id="KcOI9F813_DZbnAcJzki-61" style="edgeStyle=orthogonalEdgeStyle;rounded=0;orthogonalLoop=1;jettySize=auto;html=1;exitX=0.5;exitY=0;exitDx=0;exitDy=0;entryX=0;entryY=0.5;entryDx=0;entryDy=0;" edge="1" parent="1" source="KcOI9F813_DZbnAcJzki-55" target="KcOI9F813_DZbnAcJzki-38">
          <mxGeometry relative="1" as="geometry" />
        </mxCell>
        <mxCell id="KcOI9F813_DZbnAcJzki-55" value="No se prende&lt;div&gt;el LED&lt;/div&gt;" style="html=1;whiteSpace=wrap;" vertex="1" parent="1">
          <mxGeometry x="510" y="240" width="110" height="50" as="geometry" />
        </mxCell>
        <mxCell id="KcOI9F813_DZbnAcJzki-60" value="No" style="edgeLabel;html=1;align=center;verticalAlign=middle;resizable=0;points=[];" vertex="1" connectable="0" parent="1">
          <mxGeometry x="698" y="530" as="geometry">
            <mxPoint x="-103" y="-215" as="offset" />
          </mxGeometry>
        </mxCell>
      </root>
    </mxGraphModel>
  </diagram>
</mxfile>
